HIERARCHY
ROOT Hips
{
	OFFSET 0.000000 0.000000 0.000000
	CHANNELS 6 Xposition Yposition Zposition Zrotation Yrotation Xrotation 
	JOINT LHipJoint
	{
		OFFSET 0.000000 0.000000 0.000000
		CHANNELS 3 Zrotation Yrotation Xrotation
		JOINT LeftUpLeg
		{
			OFFSET 1.363060 -1.794630 0.839290
			CHANNELS 3 Zrotation Yrotation Xrotation
			JOINT LeftLeg
			{
				OFFSET 2.448110 -6.726130 0.000000
				CHANNELS 3 Zrotation Yrotation Xrotation
				JOINT LeftFoot
				{
					OFFSET 2.562200 -7.039590 0.000000
					CHANNELS 3 Zrotation Yrotation Xrotation
					JOINT LeftToeBase
					{
						OFFSET 0.157640 -0.433110 2.322550
						CHANNELS 3 Zrotation Yrotation Xrotation
						End Site
						{
							OFFSET 0.000000 0.000000 0.000000
						}
					}
				}
			}
		}
	}
	JOINT RHipJoint
	{
		OFFSET 0.000000 0.000000 0.000000
		CHANNELS 3 Zrotation Yrotation Xrotation
		JOINT RightUpLeg
		{
			OFFSET -1.305520 -1.794630 0.839290
			CHANNELS 3 Zrotation Yrotation Xrotation
			JOINT RightLeg
			{
				OFFSET -2.542530 -6.985550 0.000000
				CHANNELS 3 Zrotation Yrotation Xrotation
				JOINT RightFoot
				{
					OFFSET -2.568260 -7.056230 0.000000
					CHANNELS 3 Zrotation Yrotation Xrotation
					JOINT RightToeBase
					{
						OFFSET -0.164730 -0.452590 2.363150
						CHANNELS 3 Zrotation Yrotation Xrotation
						End Site
						{
							OFFSET 0.000000 0.000000 0.000000
						}
					}
				}
			}
		}
	}
	JOINT LowerBack
	{
		OFFSET 0.000000 0.000000 0.000000
		CHANNELS 3 Zrotation Yrotation Xrotation
		JOINT Spine
		{
			OFFSET 0.028270 2.035590 -0.193380
			CHANNELS 3 Zrotation Yrotation Xrotation
			JOINT Spine1
			{
				OFFSET 0.056720 2.048850 -0.042750
				CHANNELS 3 Zrotation Yrotation Xrotation
				JOINT Neck
				{
					OFFSET 0.000000 0.000000 0.000000
					CHANNELS 3 Zrotation Yrotation Xrotation
					JOINT Neck1
					{
						OFFSET -0.054170 1.746240 0.172020
						CHANNELS 3 Zrotation Yrotation Xrotation
						JOINT Head
						{
							OFFSET 0.104070 1.761360 -0.123970
							CHANNELS 3 Zrotation Yrotation Xrotation
							End Site
							{
								OFFSET 0.000000 0.000000 0.000000
							}
						}
					}
				}
				JOINT LeftShoulder
				{
					OFFSET 0.000000 0.000000 0.000000
					CHANNELS 3 Zrotation Yrotation Xrotation
					JOINT LeftArm
					{
						OFFSET 3.362410 1.200890 -0.311210
						CHANNELS 3 Zrotation Yrotation Xrotation
						JOINT LeftForeArm
						{
							OFFSET 4.983000 -0.000000 -0.000000
							CHANNELS 3 Zrotation Yrotation Xrotation
							JOINT LeftHand
							{
								OFFSET 3.483560 -0.000000 -0.000000
								CHANNELS 3 Zrotation Yrotation Xrotation
								JOINT LeftFingerBase
								{
									OFFSET 0.000000 0.000000 0.000000
									CHANNELS 3 Zrotation Yrotation Xrotation
									JOINT LeftHandIndex1
									{
										OFFSET 0.715260 -0.000000 -0.000000
										CHANNELS 3 Zrotation Yrotation Xrotation
										End Site
										{
											OFFSET 0.000000 0.000000 0.000000
										}
									}
								}
								JOINT LThumb
								{
									OFFSET 0.000000 0.000000 0.000000
									CHANNELS 3 Zrotation Yrotation Xrotation
									End Site
									{
										OFFSET 0.000000 0.000000 0.000000
									}
								}
							}
						}
					}
				}
				JOINT RightShoulder
				{
					OFFSET 0.000000 0.000000 0.000000
					CHANNELS 3 Zrotation Yrotation Xrotation
					JOINT RightArm
					{
						OFFSET -3.136600 1.374050 -0.404650
						CHANNELS 3 Zrotation Yrotation Xrotation
						JOINT RightForeArm
						{
							OFFSET -5.241900 -0.000000 -0.000000
							CHANNELS 3 Zrotation Yrotation Xrotation
							JOINT RightHand
							{
								OFFSET -3.444170 -0.000000 -0.000000
								CHANNELS 3 Zrotation Yrotation Xrotation
								JOINT RightFingerBase
								{
									OFFSET 0.000000 0.000000 0.000000
									CHANNELS 3 Zrotation Yrotation Xrotation
									JOINT RightHandIndex1
									{
										OFFSET -0.622530 -0.000000 -0.000000
										CHANNELS 3 Zrotation Yrotation Xrotation
										End Site
										{
											OFFSET 0.000000 0.000000 0.000000
										}
									}
								}
								JOINT RThumb
								{
									OFFSET 0.000000 0.000000 0.000000
									CHANNELS 3 Zrotation Yrotation Xrotation
									End Site
									{
										OFFSET 0.000000 0.000000 0.000000
									}
								}
							}
						}
					}
				}
			}
		}
	}
}
MOTION
Frames: 4
Frame Time: 0.008333
0.815911 18.024810 -36.201414 3.686152 71.510398 7.464159 -0.739736 2.125618 2.587478 -11.755986 -11.636367 -11.406191 3.752520 11.008635 33.838879 -0.025603 -28.784498 -22.036264 0.445500 4.282700 11.873300 -3.253657 -2.815057 2.578202 27.802712 1.848047 -28.329307 -7.947778 -14.182880 48.904250 -6.431197 8.161163 -48.150248 -0.503700 4.549700 -12.628700 1.455653 -2.306652 6.342918 -2.832635 -3.344103 14.255813 2.105120 -1.432777 -10.025936 -3.738533 -10.473811 -20.728835 7.724515 -13.349625 38.955811 -0.506800 -3.084300 18.025200 2.323866 -7.623147 0.010898 -84.198642 -13.903642 52.393322 47.746019 -45.311381 -23.969663 0.755244 -0.535687 -30.591354 36.605288 11.181585 8.870200 -7.125000 0.000000 0.000000 8.403100 44.934500 -0.013700 1.312583 11.968086 1.431013 71.286829 12.158178 29.490498 -28.076600 29.179186 -8.535097 0.740776 -0.388117 -12.676912 -44.210073 -0.097936 -0.653500 7.125000 0.000000 0.000000 -14.168300 -28.917000 -5.711000 
0.842726 18.049635 -35.857463 3.208177 72.261097 7.019166 -0.763713 2.163980 2.695115 -11.636306 -12.282106 -11.006064 3.628922 10.792616 33.144057 0.019013 -28.034127 -21.704829 0.479300 4.439900 12.317800 -3.261226 -2.851268 2.648309 27.898176 1.316885 -28.223991 -7.821038 -14.036552 48.333500 -6.446859 8.020838 -48.176018 -0.511600 4.584600 -12.727500 2.049147 -2.467083 5.063248 -3.466166 -3.502098 15.420782 1.780708 -1.635265 -9.029564 -3.550973 -10.523991 -22.079225 7.966106 -13.467148 38.851795 -0.485600 -3.044700 18.452900 2.498126 -7.688854 0.010839 -83.382851 -14.376760 51.554996 47.217959 -45.039705 -23.370109 0.719974 -0.487519 -31.540576 36.449386 11.725817 9.156100 -7.125000 0.000000 0.000000 8.283300 45.485000 0.099900 1.232450 12.091655 1.373075 71.899957 13.355538 29.664081 -28.050526 29.073056 -8.513188 0.758374 -0.392062 -12.572651 -44.214943 -0.286341 -0.477400 7.125000 0.000000 0.000000 -14.220500 -29.159000 -5.648700 
0.867836 18.075218 -35.511712 2.917046 72.887852 6.890450 -0.741015 2.151716 2.676835 -11.654480 -12.772437 -10.682086 3.533281 10.629863 32.618269 0.213992 -27.988805 -22.796766 0.447200 4.290500 11.895300 -3.264520 -2.859595 2.630583 27.896608 1.292727 -28.018666 -7.705722 -13.931965 47.850590 -6.525017 7.969917 -48.472699 -0.502100 4.542500 -12.608100 1.924832 -2.512702 4.709731 -3.316052 -3.622400 15.213675 1.856097 -1.683282 -8.861302 -3.692061 -10.542440 -22.397005 7.873620 -13.399813 39.081508 -0.490100 -3.029500 18.652900 2.447187 -7.679087 0.026539 -83.345393 -13.785023 51.027933 46.581630 -44.712554 -22.784937 0.696727 -0.478583 -32.228666 36.234557 12.312927 9.480300 -7.125000 0.000000 0.000000 8.109900 46.130500 0.227800 1.257123 12.102647 1.376798 72.227033 13.266554 30.021283 -28.138609 29.159044 -8.569035 0.762296 -0.378146 -12.526304 -44.203948 -0.521802 -0.227000 7.125000 0.000000 0.000000 -14.267700 -29.502900 -5.547800 
0.892566 18.094737 -35.170036 2.570135 73.355738 6.697147 -0.720407 2.136269 2.642934 -11.695425 -13.044215 -10.324210 3.431374 10.475698 32.093615 0.280633 -28.258688 -23.370476 0.364700 3.879500 10.737800 -3.261708 -2.860360 2.583009 27.878025 0.934297 -27.916966 -7.584283 -13.828882 47.373911 -6.442768 8.436256 -48.107891 -0.445800 4.283900 -11.876700 1.926389 -2.540103 4.393917 -3.368010 -3.701440 14.650327 1.897788 -1.703260 -8.761892 -3.805484 -10.490377 -21.878868 7.818123 -13.277162 39.154047 -0.463600 -3.005200 18.536100 2.401898 -7.664848 0.054938 -83.300083 -12.683578 50.537302 46.101643 -44.460593 -22.352727 0.680973 -0.472406 -32.974855 36.047871 12.648863 9.640900 -7.125000 0.000000 0.000000 7.951700 46.486000 0.293400 1.358271 12.076049 1.370579 72.714093 12.816226 30.535429 -28.190403 29.217109 -8.611677 0.765153 -0.364338 -12.379229 -44.226438 -0.671594 -0.059900 7.125000 0.000000 0.000000 -14.324000 -29.732000 -5.490100 
